<svg width="44" height="44" fill="none" xmlns="http://www.w3.org/2000/svg"><circle cx="22" cy="22" r="22" fill="#5EDCCD"/><path d="M8 30V16a2 2 0 0 1 2-2h25a2 2 0 0 1 2 2v14a2 2 0 0 1-2 2H10a2 2 0 0 1-2-2z" fill="#fff"/><path d="M12 19h11m-11 3h11" stroke="#5EC6DC" stroke-width="1.5"/><path d="M25 27.267c.381 1.226 1.905 2.45 2.286 1.226.304-.98 1.396-3.404 1.904-4.493-.127 1.225-.076 3.839 1.143 4.492 1.22.654 1.27-1.089 1.143-2.041L33 28.9" stroke="#5EC6DC" stroke-width="1.5" stroke-linecap="round" stroke-linejoin="round"/></svg>